HIERARCHY
ROOT Hips
{
	OFFSET 0.000000 0.000000 0.000000
	CHANNELS 6 Xposition Yposition Zposition Zrotation Yrotation Xrotation 
	JOINT LeftUpLeg_virtual
	{
		OFFSET 0.000000 0.000000 0.000000
		CHANNELS 3 Zrotation Yrotation Xrotation
		JOINT LeftUpLeg
		{
			OFFSET 10.205400 -3.823500 0.155100
			CHANNELS 3 Zrotation Yrotation Xrotation
			JOINT LeftLeg
			{
				OFFSET 0.708757 -12.982077 0.567790
				CHANNELS 3 Zrotation Yrotation Xrotation
				JOINT LeftFoot
				{
					OFFSET -0.708756 -10.717838 -2.184338
					CHANNELS 3 Zrotation Yrotation Xrotation
					JOINT LeftToeBase
					{
						OFFSET 0.108149 -7.191104 7.560241
						CHANNELS 3 Zrotation Yrotation Xrotation
						End Site
						{
							OFFSET 0.000000 0.000000 0.000000
						}
					}
				}
			}
		}
	}
	JOINT RightUpLeg_virtual
	{
		OFFSET 0.000000 0.000000 0.000000
		CHANNELS 3 Zrotation Yrotation Xrotation
		JOINT RightUpLeg
		{
			OFFSET -10.205400 -3.823500 0.005500
			CHANNELS 3 Zrotation Yrotation Xrotation
			JOINT RightLeg
			{
				OFFSET -0.708756 -12.982134 0.610632
				CHANNELS 3 Zrotation Yrotation Xrotation
				JOINT RightFoot
				{
					OFFSET 0.708754 -10.717769 -1.945823
					CHANNELS 3 Zrotation Yrotation Xrotation
					JOINT RightToeBase
					{
						OFFSET -0.108140 -7.191069 7.372968
						CHANNELS 3 Zrotation Yrotation Xrotation
						End Site
						{
							OFFSET 0.000000 0.000000 0.000000
						}
					}
				}
			}
		}
	}
	JOINT Spine_virtual
	{
		OFFSET 0.000000 0.000000 0.000000
		CHANNELS 3 Zrotation Yrotation Xrotation
		JOINT Spine
		{
			OFFSET 0.000000 6.876099 0.125700
			CHANNELS 3 Zrotation Yrotation Xrotation
			JOINT Spine1
			{
				OFFSET 0.000000 8.022060 0.146608
				CHANNELS 3 Zrotation Yrotation Xrotation
				JOINT Spine2
				{
					OFFSET 0.000000 9.168068 0.167552
					CHANNELS 3 Zrotation Yrotation Xrotation
					JOINT Neck_virtual
					{
						OFFSET 0.000000 0.000000 0.000000
						CHANNELS 3 Zrotation Yrotation Xrotation
						JOINT Neck
						{
							OFFSET 0.000000 10.314075 0.188496
							CHANNELS 3 Zrotation Yrotation Xrotation
							JOINT Head
							{
								OFFSET 0.000000 7.643700 -2.377400
								CHANNELS 3 Zrotation Yrotation Xrotation
								End Site
								{
									OFFSET 0.000000 0.000000 0.000000
								}
							}
						}
					}
					JOINT LeftShoulder_virtual
					{
						OFFSET 0.000000 0.000000 0.000000
						CHANNELS 3 Zrotation Yrotation Xrotation
						JOINT LeftShoulder
						{
							OFFSET 4.392200 8.824978 0.174984
							CHANNELS 3 Zrotation Yrotation Xrotation
							JOINT LeftArm
							{
								OFFSET 8.771219 -2.981674 -0.026999
								CHANNELS 3 Zrotation Yrotation Xrotation
								JOINT LeftForeArm
								{
									OFFSET 8.512804 0.000000 -0.000000
									CHANNELS 3 Zrotation Yrotation Xrotation
									JOINT LeftHand
									{
										OFFSET 18.484802 0.000000 -0.000000
										CHANNELS 3 Zrotation Yrotation Xrotation
										End Site
										{
											OFFSET 0.000000 0.000000 0.000000
										}
									}
								}
							}
						}
					}
					JOINT RightShoulder_virtual
					{
						OFFSET 0.000000 0.000000 0.000000
						CHANNELS 3 Zrotation Yrotation Xrotation
						JOINT RightShoulder
						{
							OFFSET -4.392200 8.824993 0.141379
							CHANNELS 3 Zrotation Yrotation Xrotation
							JOINT RightArm
							{
								OFFSET -8.771282 -2.981682 -0.094208
								CHANNELS 3 Zrotation Yrotation Xrotation
								JOINT RightForeArm
								{
									OFFSET -8.494598 0.000000 0.000000
									CHANNELS 3 Zrotation Yrotation Xrotation
									JOINT RightHand
									{
										OFFSET -18.483803 0.000000 0.000001
										CHANNELS 3 Zrotation Yrotation Xrotation
										End Site
										{
											OFFSET 0.000000 0.000000 0.000000
										}
									}
								}
							}
						}
					}
				}
			}
		}
	}
}
MOTION
Frames: 10
Frame Time: 0.033333
1.676354 36.664948 16.246895 179.979241 -1.131889 179.319404 -3.033793 -2.078459 12.648841 -0.652894 -1.576241 -12.812821 4.884430 8.168104 11.562464 2.699297 -2.826076 8.464226 0.000000 0.000000 0.000000 2.025427 -1.597200 12.100688 -5.606252 2.417377 -10.517010 -8.750013 2.436252 10.914402 9.542642 3.571013 10.651169 0.000000 0.000000 0.000000 0.128757 0.485029 2.823358 -3.290622 1.612608 -11.892989 -0.967166 -3.468605 4.119078 -0.003238 0.012466 -0.090439 -1.389618 -1.459881 5.247919 0.647293 2.126175 4.667205 0.000000 0.000000 0.000000 0.287020 -0.667337 2.353888 7.290995 4.902033 -5.234172 -0.003081 18.579790 -32.065542 -1.625317 -44.050342 -4.765898 0.000000 0.000000 0.000000 -3.785023 0.088958 1.633390 5.348185 -9.462055 -6.362743 20.870932 -26.555649 -39.362913 -3.944966 40.333469 -6.429863 0.000000 0.000000 0.000000 
1.675459 36.663280 16.243177 179.993175 -1.090108 179.034817 -3.191679 -2.249458 12.364093 -0.823976 -1.770945 -13.094043 4.821796 8.878145 11.381785 2.751267 -2.787556 8.181783 0.000000 0.000000 0.000000 2.145508 -1.349552 11.858155 -5.796602 2.545438 -10.764855 -9.058888 1.986257 10.736435 9.098059 3.259345 10.389658 0.000000 0.000000 0.000000 0.169205 0.425374 3.019735 -3.245107 1.501107 -11.769912 -0.954311 -3.468505 4.111910 0.000733 0.025591 -0.228124 -1.361896 -1.006277 5.265675 0.710274 2.167723 4.749369 0.000000 0.000000 0.000000 0.246328 -0.589539 2.343373 7.260943 4.968797 -5.274699 -0.056110 18.597955 -31.940297 -1.701711 -43.983157 -4.673478 0.000000 0.000000 0.000000 -3.838837 0.191321 1.678673 5.332309 -9.337716 -6.370071 20.897578 -26.523795 -39.342494 -3.923930 40.316271 -6.399906 0.000000 0.000000 0.000000 
1.673875 36.664543 16.239231 179.990825 -1.098683 179.026594 -3.196010 -2.264153 12.379578 -0.833728 -1.770415 -13.065798 4.839449 8.920959 11.425742 2.730425 -2.801544 8.212076 0.000000 0.000000 0.000000 2.137629 -1.369548 11.868786 -5.798397 2.544101 -10.773325 -9.071485 1.956847 10.697207 9.085156 3.228912 10.333919 0.000000 0.000000 0.000000 0.152629 0.601352 3.059478 -3.271646 1.635790 -11.785376 -0.965528 -3.500730 4.079492 0.004035 -0.009151 -0.152912 -1.378953 -1.224523 5.187232 0.685735 2.128599 4.804113 0.000000 0.000000 0.000000 0.252607 -0.709909 2.421427 7.257449 4.839539 -5.308966 -0.162518 18.597632 -31.898701 -1.711246 -43.832039 -4.661469 0.000000 0.000000 0.000000 -3.835314 0.031054 1.553279 5.309216 -9.471807 -6.345905 20.907817 -26.587283 -39.295984 -3.928577 40.349827 -6.410396 0.000000 0.000000 0.000000 
1.671942 36.665535 16.233465 179.986235 -1.086434 179.056428 -3.205147 -2.247154 12.376996 -0.833890 -1.753695 -13.074976 4.861985 8.895994 11.426810 2.739282 -2.793832 8.188668 0.000000 0.000000 0.000000 2.131215 -1.340773 11.875684 -5.790795 2.553904 -10.775401 -9.073356 1.948930 10.687555 9.094407 3.214344 10.338654 0.000000 0.000000 0.000000 0.147969 0.587427 2.989611 -3.275777 1.606669 -11.807334 -0.977008 -3.516965 4.120547 -0.010663 -0.025581 -0.178091 -1.352906 -1.150912 5.298419 0.725161 2.150907 4.733421 0.000000 0.000000 0.000000 0.258497 -0.670530 2.380617 7.255617 4.852247 -5.125926 -0.269320 18.721863 -31.867661 -1.670776 -44.091934 -4.716956 0.000000 0.000000 0.000000 -3.802592 0.094909 1.513010 5.322574 -9.431114 -6.183902 20.973281 -26.561923 -39.390179 -3.958319 40.349097 -6.431499 0.000000 0.000000 0.000000 
1.668128 36.666656 16.227648 179.968586 -1.088422 179.036265 -3.207898 -2.199057 12.376655 -0.862567 -1.735736 -13.098424 4.822077 8.823617 11.393184 2.743693 -2.805339 8.125985 0.000000 0.000000 0.000000 2.113293 -1.293567 11.905322 -5.782261 2.531163 -10.740607 -9.074535 1.993845 10.722117 9.099228 3.181761 10.415076 0.000000 0.000000 0.000000 0.133083 0.568725 3.008922 -3.246016 1.588993 -11.782497 -1.064622 -3.504840 4.126090 -0.006163 -0.018637 -0.223038 -1.331626 -1.491642 5.232059 0.793163 2.180658 4.796187 0.000000 0.000000 0.000000 0.305900 -0.658369 2.373064 7.292575 4.857151 -5.178760 -0.381764 18.687772 -31.872166 -1.622893 -43.946366 -4.748641 0.000000 0.000000 0.000000 -3.751782 0.106584 1.711302 5.285292 -9.374352 -6.382045 21.002801 -26.535647 -39.433564 -3.841190 40.292853 -6.300285 0.000000 0.000000 0.000000 
1.666956 36.667980 16.221615 179.981495 -1.060444 179.050554 -3.232221 -2.156894 12.378632 -0.859054 -1.698222 -13.114651 4.837274 8.723080 11.380721 2.773075 -2.786152 8.084874 0.000000 0.000000 0.000000 2.116155 -1.241430 11.913164 -5.785577 2.531118 -10.737651 -9.090054 2.010941 10.729080 9.132014 3.199508 10.426564 0.000000 0.000000 0.000000 0.124617 0.618695 2.925721 -3.284224 1.609928 -11.789463 -0.971393 -3.475956 4.188617 -0.025222 0.014949 -0.143693 -1.355998 -1.388223 5.259086 0.770527 2.162006 4.841810 0.000000 0.000000 0.000000 0.273128 -0.681044 2.308807 7.221826 4.813305 -5.262154 -0.486560 18.697412 -31.899135 -1.634917 -44.020819 -4.730515 0.000000 0.000000 0.000000 -3.806991 0.044953 1.455596 5.281831 -9.422607 -6.273573 21.045864 -26.580176 -39.396562 -3.892696 40.308075 -6.343922 0.000000 0.000000 0.000000 
1.667311 36.669285 16.213612 179.993776 -1.058386 179.026416 -3.222056 -2.125312 12.390630 -0.855839 -1.666318 -13.113300 4.836274 8.633152 11.388744 2.796901 -2.780693 8.060124 0.000000 0.000000 0.000000 2.137204 -1.221449 11.936895 -5.765022 2.506351 -10.720226 -9.082755 2.022424 10.732098 9.165485 3.202162 10.438715 0.000000 0.000000 0.000000 0.130227 0.556981 2.988528 -3.263454 1.653754 -11.797363 -0.940747 -3.471907 4.095556 -0.008570 0.042382 -0.175418 -1.356484 -1.239681 5.228906 0.736454 2.115700 4.989999 0.000000 0.000000 0.000000 0.302141 -0.745048 2.417293 7.243474 4.756998 -5.118715 -0.564226 18.851735 -31.828320 -1.642488 -43.933013 -4.689338 0.000000 0.000000 0.000000 -3.786913 0.047631 1.648191 5.272791 -9.379174 -6.325048 21.119058 -26.612454 -39.396791 -3.974943 40.200981 -6.439088 0.000000 0.000000 0.000000 
1.669149 36.668938 16.204491 179.984528 -1.050553 179.026635 -3.238476 -2.104592 12.395479 -0.862570 -1.652985 -13.100125 4.845610 8.604465 11.412905 2.804747 -2.786655 8.054471 0.000000 0.000000 0.000000 2.111103 -1.202011 11.948315 -5.756563 2.475752 -10.709850 -9.058690 1.996634 10.718200 9.185077 3.177723 10.438934 0.000000 0.000000 0.000000 0.103736 0.723393 2.968244 -3.286120 1.611423 -11.813347 -0.936647 -3.512674 4.093098 -0.002936 -0.006187 -0.108596 -1.359061 -1.211615 5.213064 0.734736 2.119118 5.084957 0.000000 0.000000 0.000000 0.299952 -0.737493 2.494558 7.242526 4.782223 -5.056078 -0.612049 18.847021 -31.801986 -1.686087 -43.922638 -4.638817 0.000000 0.000000 0.000000 -3.803834 0.087713 1.658654 5.266888 -9.325608 -6.215832 21.195580 -26.677773 -39.412883 -4.001643 40.145516 -6.436637 0.000000 0.000000 0.000000 
1.673871 36.669685 16.195568 179.957631 -1.049584 179.044421 -3.264227 -2.101052 12.379912 -0.850962 -1.656421 -13.082850 4.885293 8.582420 11.437454 2.820000 -2.782558 8.050284 0.000000 0.000000 0.000000 2.067522 -1.198839 11.950623 -5.748231 2.441095 -10.693725 -9.016589 1.928185 10.698546 9.203978 3.149510 10.456810 0.000000 0.000000 0.000000 0.091885 0.820854 2.885573 -3.293615 1.566740 -11.746778 -0.944315 -3.545881 4.169673 -0.036262 -0.034675 -0.210259 -1.304597 -1.302532 5.258694 0.729169 2.117895 5.073403 0.000000 0.000000 0.000000 0.346668 -0.747160 2.322448 7.235446 4.722206 -5.226886 -0.646473 18.843959 -31.799011 -1.638633 -43.960330 -4.659785 0.000000 0.000000 0.000000 -3.729346 0.009626 1.584502 5.235949 -9.329003 -6.403602 21.189523 -26.628741 -39.408655 -3.862162 40.235825 -6.211310 0.000000 0.000000 0.000000 
1.680769 36.670841 16.187994 179.953191 -1.078778 179.061155 -3.273251 -2.153768 12.365040 -0.874139 -1.683171 -13.034887 4.832599 8.539493 11.486893 2.864417 -2.772189 8.095936 0.000000 0.000000 0.000000 2.082117 -1.262178 11.934331 -5.760827 2.396416 -10.684544 -9.004924 1.942698 10.644104 9.243407 3.133131 10.394200 0.000000 0.000000 0.000000 0.058287 0.676382 2.872906 -3.333266 1.607544 -11.751924 -0.935910 -3.518686 4.178601 0.008895 -0.010703 -0.150372 -1.325232 -1.319510 5.215293 0.762427 2.170242 5.095555 0.000000 0.000000 0.000000 0.290291 -0.693333 2.318766 7.285180 4.770608 -5.090400 -0.587162 18.829575 -31.809236 -1.682859 -44.117773 -4.526599 0.000000 0.000000 0.000000 -3.730456 -0.011745 1.460966 5.227396 -9.303905 -6.400142 21.269479 -26.645282 -39.315371 -3.885050 40.289770 -6.219471 0.000000 0.000000 0.000000 
